<svg xmlns="http://www.w3.org/2000/svg" width="800" height="800" viewBox="0 0 32 32" xml:space="preserve">
  <path d="M13.398 19.548A6.97 6.97 0 0 1 15 24c0 3.86-3.14 7-7 7s-7-3.14-7-7 3.14-7 7-7h2.099l1.25-.909-1.25-.909H8c-3.86 0-7-3.14-7-7s3.14-7 7-7 7 3.14 7 7c0 1.69-.602 3.242-1.602 4.452l1.352.984 9.615-6.993c4.459-3.243 6.811-.007 6.811-.007zM14 16a1 1 0 1 0 2 0 1 1 0 0 0-2 0m-2 8a4 4 0 1 0-8 0 4 4 0 0 0 8 0m0-15.818a4 4 0 1 0-8 0 4 4 0 0 0 8 0m3.6 11 8.765 6.375c4.459 3.243 6.811.007 6.811.007L19 16.709z" style="fill:#fff"/>
</svg>
