<svg xmlns="http://www.w3.org/2000/svg" viewBox="0 0 330.001 330.001">
  <path d="M9.259 328.858a15 15 0 0 0 16.347-3.252L150 201.214V315a15 15 0 0 0 25.607 10.606L300 201.214V315c0 8.284 6.716 15 15 15s15-6.716 15-15V15c0-8.284-6.716-15-15-15s-15 6.716-15 15v113.788L175.606 4.393a14.99 14.99 0 0 0-16.346-3.252A15 15 0 0 0 150 14.999v113.789L25.606 4.393A14.99 14.99 0 0 0 9.26 1.141 15 15 0 0 0 0 14.999V315a15 15 0 0 0 9.259 13.858M180 51.213l113.787 113.788L180 278.787zm-150 0 113.787 113.788L30 278.787z" xmlns="http://www.w3.org/2000/svg" fill="#fff"/>
</svg>
