<svg xmlns="http://www.w3.org/2000/svg" viewBox="0 0 330.001 330.001" xml:space="preserve" fill="#fff">
  <path d="M320.741 1.142a15 15 0 0 0-16.347 3.252L180 128.786V15a15 15 0 0 0-25.607-10.606L30 128.786V15c0-8.284-6.716-15-15-15S0 6.716 0 15v300c0 8.284 6.716 15 15 15s15-6.716 15-15V201.212l124.394 124.395a14.99 14.99 0 0 0 16.346 3.252 15 15 0 0 0 9.26-13.858V201.212l124.394 124.395a14.99 14.99 0 0 0 16.346 3.252 15 15 0 0 0 9.26-13.858V15a15 15 0 0 0-9.259-13.858M150 278.787 36.213 164.999 150 51.213zm150 0L186.213 164.999 300 51.213z"/>
</svg>
